<svg xmlns="http://www.w3.org/2000/svg" viewBox="0 0 256 256">
  <defs>
    <linearGradient id="bg" x1="0" y1="0" x2="1" y2="1">
      <stop offset="0" stop-color="#4338ca"/>
      <stop offset="1" stop-color="#7c3aed"/>
    </linearGradient>
    <filter id="shadow" x="-20%" y="-20%" width="140%" height="140%">
      <feDropShadow dx="0" dy="6" stdDeviation="6" flood-color="#312e81" flood-opacity=".3"/>
    </filter>
  </defs>
  <rect x="8" y="8" width="240" height="240" rx="48" fill="url(#bg)"/>
  <g filter="url(#shadow)">
    <path d="M49 190h158" stroke="#fff" stroke-width="12" stroke-linecap="round"/>
    <rect x="60" y="137" width="27" height="53" rx="7" fill="#fbbf24"/>
    <rect x="101" y="108" width="27" height="82" rx="7" fill="#fde68a"/>
    <rect x="142" y="78" width="27" height="112" rx="7" fill="#fff"/>
    <path d="m54 103 43-32 38 19 59-43" fill="none" stroke="#fbbf24" stroke-width="12" stroke-linecap="round" stroke-linejoin="round"/>
    <path d="m183 47 11 1-2 13" fill="none" stroke="#fbbf24" stroke-width="8" stroke-linecap="round" stroke-linejoin="round"/>
    <circle cx="190" cy="179" r="28" fill="#fbbf24" stroke="#fff" stroke-width="7"/>
    <path d="M190 163v32m9-24c-3-8-17-8-18 0-1 9 18 5 18 15 0 9-15 10-19 2" fill="none" stroke="#4338ca" stroke-width="6" stroke-linecap="round"/>
  </g>
</svg>
